<svg width="155" height="227" viewBox="0 0 155 227" fill="none" xmlns="http://www.w3.org/2000/svg">
<path d="M155 151C131.222 151 108.418 143.046 91.6042 128.887C74.7906 114.728 65.3448 95.5239 65.3448 75.5C65.3448 55.4762 74.7906 36.2724 91.6042 22.1134C108.418 7.95445 131.222 0 155 0L155 75.5L155 151Z" fill="#FFB201"/>
<path d="M0.032959 227C23.811 227 46.6151 219.046 63.4287 204.887C80.2423 190.728 89.6881 171.524 89.6881 151.5C89.6881 131.476 80.2423 112.272 63.4287 98.1134C46.6151 83.9545 23.811 76 0.0329862 76L0.032968 151.5L0.032959 227Z" fill="#1EBCB4"/>
<path d="M0.032959 188C11.3708 188 22.2443 184.207 30.2614 177.456C38.2785 170.705 42.7824 161.548 42.7824 152C42.7824 142.452 38.2785 133.295 30.2614 126.544C22.2443 119.793 11.3708 116 0.0329719 116L0.0329633 152L0.032959 188Z" fill="#1E5DBC"/>
</svg>
