<svg width="90" height="227" viewBox="0 0 90 227" fill="none" xmlns="http://www.w3.org/2000/svg">
<path d="M0 151C23.7114 151 46.4516 143.046 63.2181 128.887C79.9846 114.728 89.4039 95.5239 89.404 75.5C89.404 55.4762 79.9846 36.2724 63.2182 22.1134C46.4517 7.95445 23.7114 0 2.71032e-05 0L9.03441e-06 75.5L0 151Z" fill="#FFB201"/>
<path d="M0 112C11.3061 112 22.1491 108.207 30.1437 101.456C38.1384 94.7045 42.6297 85.5478 42.6297 76C42.6297 66.4522 38.1384 57.2955 30.1438 50.5442C22.1491 43.7929 11.3061 40 1.29234e-05 40L4.3078e-06 76L0 112Z" fill="#1E5DBC"/>
<path d="M0 302C23.7114 302 46.4516 294.046 63.2181 279.887C79.9846 265.728 89.4039 246.524 89.404 226.5C89.404 206.476 79.9846 187.272 63.2182 173.113C46.4517 158.954 23.7114 151 2.71032e-05 151L9.03441e-06 226.5L0 302Z" fill="#1E5DBC"/>
</svg>
