<svg width="238" height="228" viewBox="0 0 238 228" fill="none" xmlns="http://www.w3.org/2000/svg">
<path d="M271.834 114.924C264.222 101.367 252.61 90.4897 238.584 83.7795C224.559 77.0692 208.803 74.8528 193.471 77.433C178.138 80.0132 163.976 87.2642 152.919 98.1955C141.862 109.127 134.45 123.205 131.695 138.507C128.94 153.809 130.976 169.589 137.526 183.69C144.075 197.792 154.819 209.527 168.288 217.293C181.758 225.059 197.297 228.478 212.782 227.081C228.268 225.684 242.944 219.541 254.807 209.49L228.271 178.172C222.858 182.758 216.161 185.561 209.095 186.199C202.029 186.836 194.938 185.276 188.792 181.732C182.645 178.189 177.743 172.834 174.754 166.399C171.765 159.964 170.836 152.764 172.093 145.781C173.351 138.798 176.733 132.374 181.778 127.386C186.824 122.398 193.286 119.089 200.283 117.912C207.279 116.734 214.469 117.746 220.869 120.808C227.269 123.87 232.568 128.833 236.041 135.02L271.834 114.924Z" fill="#A27FFF"/>
<path d="M54.5 75.8861C54.5 55.8623 62.4544 36.6585 76.6134 22.4995C90.7724 8.34055 109.976 0.386101 130 0.386101C150.024 0.386101 169.228 8.34055 183.387 22.4995C197.546 36.6585 205.5 55.8622 205.5 75.8861L130 75.8861L54.5 75.8861Z" fill="#1EBCB4"/>
<path d="M0.5 75.3861C0.499998 95.41 8.45444 114.614 22.6134 128.773C36.7724 142.932 55.9761 150.886 76 150.886C96.0238 150.886 115.228 142.932 129.387 128.773C143.546 114.614 151.5 95.41 151.5 75.3861L76 75.3861L0.5 75.3861Z" fill="#FFB201"/>
</svg>
